# xmcd
#
# Track frame offsets:
#	150
#	13125
#	30470
#	45742
#	56452
#	74407
#	92400
#	108417
#	117222
#	130179
#	149392
#	161359
#	174730
#	187015
#	194957
#	211087
#
# Disc length: 3062 seconds
#
# Revision: 1
# Processed by: cddbd v1.4PL0 Copyright (c) Steve Scherf et al.
# Submitted via: EasyCDDAExtractor 5.0.6
#
DISCID=e50bf410
DTITLE=Hitchin' Post - The Ballad Of Cal and Cubi
DYEAR=1900
DGENRE=Country
TTITLE0=Falling To The Ground
TTITLE1=The River
TTITLE2=Water-Hole Trap
TTITLE3=Gillianna
TTITLE4=Honky Tonk Man
TTITLE5=Carrie
TTITLE6=Clouds
TTITLE7=What Makes Me Tick
TTITLE8=Too Far Gone
TTITLE9=Marianne
TTITLE10=Memphis
TTITLE11=Sister - The Ballad Of Cal and Cubi
TTITLE12=Turn Around
TTITLE13=Gonna Have Love
TTITLE14=A Prison He Called Home
TTITLE15=The Dike
EXTD=
EXTT0=
EXTT1=
EXTT2=
EXTT3=
EXTT4=
EXTT5=
EXTT6=
EXTT7=
EXTT8=
EXTT9=
EXTT10=
EXTT11=
EXTT12=
EXTT13=
EXTT14=
EXTT15=
PLAYORDER=
